<?xml version='1.0' encoding='utf-8'?>
<svg xmlns="http://www.w3.org/2000/svg" width="100%" height="100%" version="1.1" style="shape-rendering:geometricPrecision; text-rendering:geometricPrecision; image-rendering:optimizeQuality; fill-rule:evenodd; clip-rule:evenodd" viewBox="0 0 9144 9144"> <defs> <style type="text/css">  .fil1 {fill:#1ED760} .fil0 {fill:white}  </style> </defs> <g id="Camada_x0020_1"> <metadata id="CorelCorpID_0Corel-Layer"/> <polygon class="fil0" points="0,0 9144,0 9144,9144 0,9144 "/> <path class="fil1" d="M4612 5297c-255,-35 -509,-18 -752,38 -23,5 -46,11 -69,17 -22,6 -43,12 -64,19l0 0 -24 8 -15 5c-63,25 -131,22 -189,-3 -58,-26 -106,-73 -131,-137 -25,-63 -22,-131 3,-189 26,-58 73,-106 137,-131 26,-10 62,-23 110,-37 39,-11 83,-23 132,-34 300,-69 615,-90 933,-46 289,40 579,134 861,295 60,34 99,88 116,150 17,61 10,128 -24,188l0 -1c-34,60 -88,100 -149,116 -62,17 -129,10 -188,-23 -225,-129 -457,-204 -687,-235zm-962 -1363c303,-68 618,-101 930,-89 290,12 578,63 855,162 74,27 149,57 223,93 74,34 144,71 212,112 19,11 40,13 59,8 20,-5 37,-17 48,-35 11,-19 14,-40 9,-60 -5,-19 -17,-37 -36,-48 -74,-44 -149,-84 -224,-119 -76,-36 -155,-68 -238,-98 -293,-105 -594,-159 -894,-172 -330,-14 -660,22 -979,93 -69,15 -133,32 -188,47 -65,19 -115,35 -149,47l-1 1c-20,8 -35,22 -43,40 -9,19 -10,40 -3,60l1 2c8,19 22,34 40,42 19,9 40,10 60,3 10,-4 23,-9 37,-13l46 -15c36,-11 74,-21 114,-32 37,-9 77,-19 121,-29zm104 635c254,-71 551,-95 889,-53 303,37 640,129 1008,287 20,8 42,8 60,0 19,-7 35,-22 43,-41 9,-20 8,-42 1,-60 -7,-19 -22,-35 -42,-43 -387,-167 -744,-262 -1069,-300 -351,-42 -663,-16 -933,59 -49,14 -91,28 -125,41 -38,14 -69,28 -91,40 -19,10 -31,27 -37,46 -6,19 -4,41 6,60 10,19 27,32 46,38 20,6 41,4 60,-7 4,-1 11,-5 20,-9l1 0 23 -10c21,-9 43,-17 66,-25 23,-8 47,-15 74,-23zm69 601c261,-60 536,-79 811,-41 252,35 505,116 749,256 19,11 40,13 59,7 20,-5 37,-17 48,-36l0 0c10,-19 13,-41 7,-60 -5,-19 -18,-36 -37,-47 -263,-151 -533,-238 -801,-275 -296,-41 -590,-21 -871,44 -49,11 -90,21 -123,31 -40,12 -72,23 -96,32 -20,8 -35,23 -43,42 -8,18 -9,39 -1,60 8,20 23,35 42,43 18,8 40,9 60,1l22 -8 27 -9 0 0c21,-7 45,-14 71,-21 23,-6 48,-12 76,-19zm-163 -389l0 0zm963 -97c-315,-40 -590,-18 -824,48 -23,6 -44,13 -64,20 -22,7 -41,15 -57,21l-18 8 -10 4c-59,33 -127,38 -187,20 -61,-18 -115,-60 -148,-120 -32,-60 -37,-127 -19,-187 18,-61 59,-115 119,-148 27,-14 64,-31 113,-49 40,-15 86,-31 138,-45 290,-82 624,-110 998,-65 339,40 712,139 1115,312 63,27 109,77 133,136 23,58 24,126 -2,189 -27,63 -77,109 -136,132 -59,24 -126,25 -189,-2 -353,-151 -674,-238 -962,-274zm755 -517c-261,-94 -532,-142 -804,-153 -298,-12 -598,20 -888,85 -39,9 -78,18 -115,28 -39,10 -75,20 -107,30l-43 13 -30 11c-64,23 -131,19 -189,-7 -57,-27 -105,-75 -129,-139l-2 -6 0 -1c-21,-62 -16,-126 9,-182 26,-57 75,-105 139,-129l6 -2c40,-14 92,-32 156,-49 55,-16 121,-33 198,-50 332,-74 677,-111 1021,-96 318,13 636,70 945,181 84,30 168,64 252,104 83,39 163,81 239,127 59,35 98,90 114,151 16,62 8,129 -27,188 -35,59 -91,98 -152,113 -61,16 -128,8 -187,-27 -65,-39 -131,-74 -197,-105 -66,-31 -136,-59 -209,-85zm691 -1092c-383,-383 -913,-620 -1497,-620 -584,0 -1114,237 -1497,620 -383,383 -620,913 -620,1497 0,584 237,1114 620,1497 383,383 913,620 1497,620 584,0 1114,-237 1497,-620 383,-383 620,-913 620,-1497 0,-584 -237,-1114 -620,-1497z"/> </g> </svg>